<svg width="48" height="48" viewBox="0 0 48 48" fill="none" xmlns="http://www.w3.org/2000/svg">
<g id="37">
<g id="Group">
<path id="Vector" d="M23.8399 15.04L25.0199 17.8C25.0999 18.04 25.3199 18.18 25.5399 18.2L28.5399 18.48C29.1799 18.54 29.4199 19.32 28.9599 19.74L26.6999 21.72C26.5199 21.88 26.4399 22.12 26.4999 22.34L27.1599 25.28C27.2999 25.9 26.6399 26.38 26.0799 26.06L23.4999 24.52C23.2999 24.4 23.0399 24.4 22.8399 24.52L20.2599 26.06C19.7199 26.38 19.0399 25.9 19.1799 25.28L19.8399 22.34C19.8999 22.12 19.8199 21.88 19.6399 21.72L17.3799 19.74C16.8999 19.32 17.1599 18.54 17.7999 18.48L20.7999 18.2C21.0399 18.18 21.2399 18.04 21.3399 17.82L22.5199 15.06C22.7599 14.46 23.5799 14.46 23.8399 15.04Z" stroke="white" stroke-width="2" stroke-miterlimit="10" stroke-linecap="round" stroke-linejoin="round"/>
<path id="Vector_2" d="M36.7741 20.8892C36.8258 13.3781 30.7787 7.24729 23.2677 7.1956C15.7566 7.14391 9.62576 13.1909 9.57406 20.702C9.52237 28.2131 15.5694 34.3439 23.0805 34.3956C30.5915 34.4473 36.7224 28.4003 36.7741 20.8892Z" stroke="white" stroke-width="2" stroke-miterlimit="10" stroke-linecap="round" stroke-linejoin="round"/>
<g id="Group_2">
<path id="Vector_3" d="M21.3196 34.26L17.9396 42.76L13.6596 37.86L7.19965 38.46L11.4796 27.74" stroke="white" stroke-width="2" stroke-miterlimit="10" stroke-linecap="round" stroke-linejoin="round"/>
<path id="Vector_4" d="M24.9999 34.26L28.3999 42.76L32.6599 37.86L39.1399 38.46L34.8399 27.74" stroke="white" stroke-width="2" stroke-miterlimit="10" stroke-linecap="round" stroke-linejoin="round"/>
</g>
</g>
</g>
</svg>
