<svg width="48" height="48" viewBox="0 0 48 48" fill="none" xmlns="http://www.w3.org/2000/svg">
<g id="82">
<g id="Group">
<path id="Vector" d="M38.68 28.5V33.74C38.68 36.5 36.44 38.74 33.68 38.74H10.5C7.74 38.74 5.5 36.5 5.5 33.74V12.5C5.5 9.74 7.74 7.5 10.5 7.5H33.68C36.44 7.5 38.68 9.74 38.68 12.5V17.5" stroke="white" stroke-width="2" stroke-miterlimit="10" stroke-linecap="round" stroke-linejoin="round"/>
<path id="Vector_2" d="M29 23H30.48" stroke="white" stroke-width="2" stroke-miterlimit="10" stroke-linecap="round" stroke-linejoin="round"/>
<path id="Vector_3" d="M26.7799 28H38.6101C39.9245 28 41 27.0546 41 25.8992V20.1008C41 18.9454 39.9245 18 38.6101 18H26.7799C24.1509 18 22 19.8908 22 22.2017V23.7983C22 26.1303 24.127 28 26.7799 28Z" stroke="white" stroke-width="2" stroke-miterlimit="10" stroke-linecap="round" stroke-linejoin="round"/>
</g>
</g>
</svg>
