<svg width="176" height="32" viewBox="0 0 176 32" fill="none" xmlns="http://www.w3.org/2000/svg">
<path fill-rule="evenodd" clip-rule="evenodd" d="M0 16C0 7.16344 7.16344 0 16 0C24.8366 0 32 7.16344 32 16C32 24.8366 24.8366 32 16 32C7.16344 32 0 24.8366 0 16Z" fill="#C4C4C4"/>
<path fill-rule="evenodd" clip-rule="evenodd" d="M16 0C7.16344 0 0 7.16344 0 16C0 24.8366 7.16344 32 16 32C24.8366 32 32 24.8366 32 16C32 7.16344 24.8366 0 16 0ZM17.6676 16.7028V25.4077H14.066V16.7031H12.2666V13.7034H14.066V11.9024C14.066 9.4552 15.082 8 17.9687 8H20.372V11.0001H18.8698C17.7461 11.0001 17.6717 11.4193 17.6717 12.2017L17.6676 13.7031H20.389L20.0706 16.7028H17.6676Z" fill="white"/>
<path fill-rule="evenodd" clip-rule="evenodd" d="M48 16C48 7.16344 55.1634 0 64 0C72.8366 0 80 7.16344 80 16C80 24.8366 72.8366 32 64 32C55.1634 32 48 24.8366 48 16Z" fill="#C4C4C4"/>
<path fill-rule="evenodd" clip-rule="evenodd" d="M64 0C55.1634 0 48 7.16344 48 16C48 24.8366 55.1634 32 64 32C72.8366 32 80 24.8366 80 16C80 7.16344 72.8366 0 64 0ZM60.8156 7.51835C61.7258 7.47693 62.0167 7.4668 64.3342 7.4668H64.3315C66.6498 7.4668 66.9396 7.47693 67.8498 7.51835C68.7582 7.55995 69.3787 7.70378 69.9227 7.9148C70.4845 8.13258 70.9592 8.42414 71.4338 8.89881C71.9085 9.37313 72.2001 9.84922 72.4187 10.4105C72.6285 10.9531 72.7725 11.5732 72.8152 12.4816C72.8561 13.3918 72.8667 13.6827 72.8667 16.0002C72.8667 18.3178 72.8561 18.6079 72.8152 19.5181C72.7725 20.4262 72.6285 21.0465 72.4187 21.5893C72.2001 22.1503 71.9085 22.6264 71.4338 23.1007C70.9597 23.5754 70.4843 23.8677 69.9232 24.0856C69.3803 24.2967 68.7595 24.4405 67.851 24.4821C66.9408 24.5235 66.6509 24.5336 64.3331 24.5336C62.0158 24.5336 61.7251 24.5235 60.8149 24.4821C59.9066 24.4405 59.2863 24.2967 58.7434 24.0856C58.1825 23.8677 57.7064 23.5754 57.2323 23.1007C56.7578 22.6264 56.4662 22.1503 56.2481 21.5891C56.0372 21.0465 55.8934 20.4264 55.8516 19.5179C55.8104 18.6077 55.8001 18.3178 55.8001 16.0002C55.8001 13.6827 55.8107 13.3917 55.8514 12.4814C55.8923 11.5733 56.0363 10.9531 56.2479 10.4103C56.4666 9.84922 56.7581 9.37313 57.2328 8.89881C57.7071 8.42432 58.1832 8.13276 58.7445 7.9148C59.287 7.70378 59.9071 7.55995 60.8156 7.51835Z" fill="white"/>
<path fill-rule="evenodd" clip-rule="evenodd" d="M63.5687 9.00409C63.7174 9.00385 63.8773 9.00393 64.0498 9.004L64.3343 9.00409C66.6127 9.00409 66.8827 9.01226 67.7825 9.05315C68.6145 9.0912 69.066 9.23022 69.3668 9.34702C69.7651 9.50169 70.049 9.68658 70.3475 9.98525C70.6461 10.2839 70.831 10.5684 70.9861 10.9666C71.1029 11.267 71.2421 11.7186 71.2799 12.5506C71.3208 13.4502 71.3297 13.7204 71.3297 15.9978C71.3297 18.2751 71.3208 18.5453 71.2799 19.4449C71.2419 20.2769 71.1029 20.7285 70.9861 21.0289C70.8314 21.4271 70.6461 21.7107 70.3475 22.0092C70.0488 22.3079 69.7652 22.4928 69.3668 22.6474C69.0664 22.7648 68.6145 22.9034 67.7825 22.9415C66.8829 22.9824 66.6127 22.9913 64.3343 22.9913C62.0556 22.9913 61.7856 22.9824 60.886 22.9415C60.054 22.9031 59.6025 22.7641 59.3015 22.6472C58.9033 22.4926 58.6188 22.3077 58.3201 22.009C58.0215 21.7104 57.8366 21.4266 57.6816 21.0282C57.5648 20.7278 57.4256 20.2762 57.3877 19.4442C57.3468 18.5446 57.3386 18.2744 57.3386 15.9956C57.3386 13.7168 57.3468 13.448 57.3877 12.5485C57.4257 11.7165 57.5648 11.2649 57.6816 10.9641C57.8362 10.5659 58.0215 10.2814 58.3201 9.98276C58.6188 9.68409 58.9033 9.4992 59.3015 9.34418C59.6023 9.22684 60.054 9.08818 60.886 9.04995C61.6732 9.0144 61.9783 9.00373 63.5687 9.00195V9.00409ZM68.8892 10.4206C68.3238 10.4206 67.8651 10.8787 67.8651 11.4443C67.8651 12.0096 68.3238 12.4683 68.8892 12.4683C69.4545 12.4683 69.9132 12.0096 69.9132 11.4443C69.9132 10.8789 69.4545 10.4202 68.8892 10.4202V10.4206ZM59.9521 15.9988C59.9521 13.5787 61.9141 11.6166 64.3341 11.6165C66.7543 11.6165 68.7159 13.5787 68.7159 15.9988C68.7159 18.4189 66.7544 20.3802 64.3343 20.3802C61.9142 20.3802 59.9521 18.4189 59.9521 15.9988Z" fill="white"/>
<path fill-rule="evenodd" clip-rule="evenodd" d="M64.334 13.1553C65.9048 13.1553 67.1785 14.4287 67.1785 15.9997C67.1785 17.5706 65.9048 18.8442 64.334 18.8442C62.7629 18.8442 61.4895 17.5706 61.4895 15.9997C61.4895 14.4287 62.7629 13.1553 64.334 13.1553V13.1553Z" fill="white"/>
<path fill-rule="evenodd" clip-rule="evenodd" d="M96 16C96 7.16344 103.163 0 112 0C120.837 0 128 7.16344 128 16C128 24.8366 120.837 32 112 32C103.163 32 96 24.8366 96 16Z" fill="#C4C4C4"/>
<path fill-rule="evenodd" clip-rule="evenodd" d="M112 0C103.163 0 96 7.16344 96 16C96 24.8366 103.163 32 112 32C120.837 32 128 24.8366 128 16C128 7.16344 120.837 0 112 0ZM112.221 13.5582L112.188 13.0046C112.087 11.5697 112.971 10.259 114.37 9.75059C114.885 9.56981 115.758 9.54721 116.328 9.70539C116.552 9.77318 116.978 9.99916 117.28 10.2025L117.828 10.5754L118.433 10.3833C118.768 10.2816 119.216 10.1121 119.417 9.99916C119.608 9.89747 119.776 9.84097 119.776 9.87487C119.776 10.0669 119.361 10.7223 119.014 11.0838C118.544 11.5923 118.679 11.6375 119.63 11.2985C120.201 11.1064 120.212 11.1064 120.1 11.3211C120.033 11.4341 119.686 11.8295 119.317 12.1911C118.69 12.8125 118.656 12.8803 118.656 13.4001C118.656 14.2023 118.276 15.8745 117.895 16.7897C117.19 18.5071 115.679 20.281 114.168 21.1736C112.042 22.4277 109.211 22.7441 106.827 22.0097C106.032 21.7611 104.667 21.1284 104.667 21.0154C104.667 20.9815 105.081 20.9363 105.584 20.925C106.636 20.9024 107.689 20.6086 108.584 20.0889L109.188 19.7273L108.494 19.4901C107.509 19.1511 106.625 18.3715 106.401 17.6371C106.334 17.3998 106.357 17.3885 106.983 17.3885L107.633 17.3772L107.084 17.1173C106.435 16.7897 105.842 16.236 105.551 15.6711C105.338 15.2643 105.07 14.2362 105.148 14.1571C105.17 14.1232 105.405 14.191 105.674 14.2814C106.446 14.5638 106.547 14.496 106.099 14.0215C105.26 13.1628 105.003 11.886 105.405 10.6771L105.596 10.1347L106.334 10.8692C107.845 12.3493 109.625 13.2306 111.662 13.4905L112.221 13.5582Z" fill="white"/>
<path fill-rule="evenodd" clip-rule="evenodd" d="M144 16C144 7.16344 151.163 0 160 0C168.837 0 176 7.16344 176 16C176 24.8366 168.837 32 160 32C151.163 32 144 24.8366 144 16Z" fill="#C4C4C4"/>
<path fill-rule="evenodd" clip-rule="evenodd" d="M160 0C151.163 0 144 7.16344 144 16C144 24.8366 151.163 32 160 32C168.837 32 176 24.8366 176 16C176 7.16344 168.837 0 160 0ZM166.668 10.5C167.402 10.7015 167.981 11.2953 168.177 12.0493C168.533 13.4158 168.533 16.2671 168.533 16.2671C168.533 16.2671 168.533 19.1183 168.177 20.485C167.981 21.239 167.402 21.8327 166.668 22.0343C165.337 22.4005 160 22.4005 160 22.4005C160 22.4005 154.663 22.4005 153.332 22.0343C152.598 21.8327 152.02 21.239 151.823 20.485C151.467 19.1183 151.467 16.2671 151.467 16.2671C151.467 16.2671 151.467 13.4158 151.823 12.0493C152.02 11.2953 152.598 10.7015 153.332 10.5C154.663 10.1338 160 10.1338 160 10.1338C160 10.1338 165.337 10.1338 166.668 10.5Z" fill="white"/>
<path fill-rule="evenodd" clip-rule="evenodd" d="M158.4 19.1995V13.8662L162.667 16.533L158.4 19.1995Z" fill="white"/>
</svg>
