<svg width="40" height="40" viewBox="0 0 40 40" fill="none" xmlns="http://www.w3.org/2000/svg">
<g id="user-interface 1">
<g id="Group">
<path id="Vector" d="M40 24.4847V2.23975C40 1.59256 39.4753 1.06787 38.8281 1.06787H1.17188C0.524687 1.06787 0 1.59256 0 2.23975V24.4847H40ZM19.6094 19.9615C19.6094 20.6087 19.0847 21.1334 18.4375 21.1334H10.3912C9.74406 21.1334 9.21938 20.6087 9.21938 19.9615V14.3077C9.21938 13.6605 9.74406 13.1358 10.3912 13.1358H18.4375C19.0847 13.1358 19.6094 13.6605 19.6094 14.3077V19.9615ZM30.7508 21.1334H23.125C22.4778 21.1334 21.9531 20.6087 21.9531 19.9615C21.9531 19.3144 22.4778 18.7897 23.125 18.7897H30.7508C31.398 18.7897 31.9227 19.3144 31.9227 19.9615C31.9227 20.6087 31.398 21.1334 30.7508 21.1334ZM30.7508 15.4796H23.125C22.4778 15.4796 21.9531 14.9549 21.9531 14.3077C21.9531 13.6605 22.4778 13.1358 23.125 13.1358H30.7508C31.398 13.1358 31.9227 13.6605 31.9227 14.3077C31.9227 14.9549 31.398 15.4796 30.7508 15.4796ZM30.7508 9.10662H10.3912C9.74406 9.10662 9.21938 8.58193 9.21938 7.93475C9.21938 7.28756 9.74406 6.76287 10.3912 6.76287H30.7508C31.398 6.76287 31.9227 7.28756 31.9227 7.93475C31.9227 8.58193 31.398 9.10662 30.7508 9.10662Z" fill="white"/>
<path id="Vector_2" d="M15.4382 34.5325V36.5886H15.1006C14.4534 36.5886 13.9287 37.1133 13.9287 37.7604C13.9287 38.4076 14.4534 38.9323 15.1006 38.9323H24.8992C25.5464 38.9323 26.0711 38.4076 26.0711 37.7604C26.0711 37.1133 25.5464 36.5886 24.8992 36.5886H24.5616V34.5325H15.4382Z" fill="white"/>
<path id="Vector_3" d="M38.8281 32.1456C39.4753 32.1456 40 31.6209 40 30.9737V26.8283H0V30.9737C0 31.6209 0.524687 32.1456 1.17188 32.1456H38.8281Z" fill="white"/>
<path id="Vector_4" d="M11.563 15.4796H17.2655V18.7897H11.563V15.4796Z" fill="white"/>
</g>
</g>
</svg>
